<?xml version="1.0" encoding="UTF-8" standalone="no"?>
<!DOCTYPE svg PUBLIC "-//W3C//DTD SVG 20010904//EN"
"http://www.w3.org/TR/2001/REC-SVG-20010904/DTD/svg10.dtd">
<!-- Created with Sodipodi ("http://www.sodipodi.com/") -->
<svg
   width="48pt"
   height="48pt"
   viewBox="0 0 256 256"
   overflow="visible"
   enable-background="new 0 0 256 256"
   xml:space="preserve"
   id="svg548"
   sodipodi:version="0.32"
   sodipodi:docname="tellico_mime.svg"
   sodipodi:docbase="/home/vqu/Desktop/icon tellico"
   inkscape:version="0.39"
   xmlns="http://www.w3.org/2000/svg"
   xmlns:cc="http://web.resource.org/cc/"
   xmlns:inkscape="http://www.inkscape.org/namespaces/inkscape"
   xmlns:xap="http://ns.adobe.com/xap/1.0/"
   xmlns:xapGImg="http://ns.adobe.com/xap/1.0/g/img/"
   xmlns:sodipodi="http://sodipodi.sourceforge.net/DTD/sodipodi-0.dtd"
   xmlns:ns="http://ns.adobe.com/SaveForWeb/1.0/"
   xmlns:rdf="http://www.w3.org/1999/02/22-rdf-syntax-ns#"
   xmlns:xml="http://www.w3.org/XML/1998/namespace"
   xmlns:xapMM="http://ns.adobe.com/xap/1.0/mm/"
   xmlns:a="http://ns.adobe.com/AdobeSVGViewerExtensions/3.0/"
   xmlns:pdf="http://ns.adobe.com/pdf/1.3/"
   xmlns:dc="http://purl.org/dc/elements/1.1/"
   xmlns:xlink="http://www.w3.org/1999/xlink"
   xmlns:x="adobe:ns:meta/">
  <defs
     id="defs654"><linearGradient
   id="linearGradient2152">
    <stop
   offset="0.0000000"
   style="stop-color:#2f9eff;stop-opacity:1.0000000;"
   id="stop2154" />

    <stop
   offset="1.0000000"
   style="stop-color:#2077e0;stop-opacity:1.0000000;"
   id="stop2156" />

  </linearGradient>
<linearGradient
   id="linearGradient2144">
    <stop
   offset="0.0000000"
   style="stop-color:#60baff;stop-opacity:1.0000000;"
   id="stop2146" />

    <stop
   offset="1.0000000"
   style="stop-color:#1674cd;stop-opacity:1.0000000;"
   id="stop2148" />

  </linearGradient>

  <linearGradient
   id="linearGradient3029">
    <stop
   offset="0.0000000"
   style="stop-color:#a1ffa2;stop-opacity:1.0000000;"
   id="stop3030" />

    <stop
   offset="1.0000000"
   style="stop-color:#4ed64e;stop-opacity:1.0000000;"
   id="stop3031" />

  </linearGradient>

  <linearGradient
   id="linearGradient2400">
    <stop
   offset="0.0000000"
   style="stop-color:#ccffcc;stop-opacity:1.0000000;"
   id="stop2403" />

    <stop
   offset="0.41010001"
   style="stop-color:#99ff66;stop-opacity:1.0000000;"
   id="stop2402" />

    <stop
   offset="1.0000000"
   style="stop-color:#66cc33;stop-opacity:1.0000000;"
   id="stop2401" />

  </linearGradient>

  <linearGradient
   id="linearGradient2099">
    <stop
   offset="0.0000000"
   style="stop-color:#ff999b;stop-opacity:1.0000000;"
   id="stop2100" />

    <stop
   offset="1.0000000"
   style="stop-color:#ff4e4e;stop-opacity:1.0000000;"
   id="stop2101" />

  </linearGradient>

  <linearGradient
   id="linearGradient2094">
    <stop
   offset="0.0000000"
   style="stop-color:#ff9999;stop-opacity:1.0000000;"
   id="stop2096" />

    <stop
   offset="1.0000000"
   style="stop-color:#ff6666;stop-opacity:1.0000000;"
   id="stop2095" />

  </linearGradient>

  <linearGradient
   id="XMLID_1_"
   gradientUnits="userSpaceOnUse"
   x1="128.9995"
   y1="11"
   x2="128.9995"
   y2="245.0005">
      <stop
   offset="0"
   style="stop-color:#494949"
   id="stop555" />



      <stop
   offset="1"
   style="stop-color:#000000"
   id="stop556" />



      <a:midPointStop
   offset="0"
   style="stop-color:#494949"
   id="midPointStop557" />



      <a:midPointStop
   offset="0.5"
   style="stop-color:#494949"
   id="midPointStop558" />



      <a:midPointStop
   offset="1"
   style="stop-color:#000000"
   id="midPointStop559" />



    </linearGradient>

  <linearGradient
   id="XMLID_2_"
   gradientUnits="userSpaceOnUse"
   x1="29.0532"
   y1="29.0532"
   x2="226.9471"
   y2="226.9471">
      <stop
   offset="0"
   style="stop-color:#FFFFFF"
   id="stop563" />



      <stop
   offset="1"
   style="stop-color:#DADADA"
   id="stop564" />



      <a:midPointStop
   offset="0"
   style="stop-color:#FFFFFF"
   id="midPointStop565" />



      <a:midPointStop
   offset="0.5"
   style="stop-color:#FFFFFF"
   id="midPointStop566" />



      <a:midPointStop
   offset="1"
   style="stop-color:#DADADA"
   id="midPointStop567" />



    </linearGradient>

  <linearGradient
   id="XMLID_3_"
   gradientUnits="userSpaceOnUse"
   x1="139.8662"
   y1="75.7139"
   x2="202.4969"
   y2="138.3446">
      <stop
   offset="0.0000000"
   style="stop-color:#1a2993;stop-opacity:1.0000000;"
   id="stop575" />



      <stop
   offset="0.47189999"
   style="stop-color:#003044;stop-opacity:1.0000000;"
   id="stop576" />



      <stop
   offset="1.0000000"
   style="stop-color:#003344;stop-opacity:1.0000000;"
   id="stop577" />



      <a:midPointStop
   offset="0"
   style="stop-color:#E14E30"
   id="midPointStop578" />



      <a:midPointStop
   offset="0.5"
   style="stop-color:#E14E30"
   id="midPointStop579" />



      <a:midPointStop
   offset="0.4719"
   style="stop-color:#FF5B00"
   id="midPointStop580" />



      <a:midPointStop
   offset="0.5"
   style="stop-color:#FF5B00"
   id="midPointStop581" />



      <a:midPointStop
   offset="1"
   style="stop-color:#C51700"
   id="midPointStop582" />



    </linearGradient>

  <linearGradient
   id="XMLID_4_"
   gradientUnits="userSpaceOnUse"
   x1="50.0991"
   y1="75.9434"
   x2="112.7299"
   y2="138.5741">
      <stop
   offset="0"
   style="stop-color:#990000"
   id="stop600" />



      <stop
   offset="0.4551"
   style="stop-color:#7C0000"
   id="stop601" />



      <stop
   offset="1"
   style="stop-color:#600000"
   id="stop602" />



      <a:midPointStop
   offset="0"
   style="stop-color:#990000"
   id="midPointStop603" />



      <a:midPointStop
   offset="0.5"
   style="stop-color:#990000"
   id="midPointStop604" />



      <a:midPointStop
   offset="0.4551"
   style="stop-color:#7C0000"
   id="midPointStop605" />



      <a:midPointStop
   offset="0.5"
   style="stop-color:#7C0000"
   id="midPointStop606" />



      <a:midPointStop
   offset="1"
   style="stop-color:#600000"
   id="midPointStop607" />



    </linearGradient>

  <linearGradient
   id="XMLID_5_"
   gradientUnits="userSpaceOnUse"
   x1="94.5244"
   y1="116.9331"
   x2="157.1558"
   y2="179.5645">
      <stop
   offset="0.0000000"
   style="stop-color:#009933;stop-opacity:1.0000000;"
   id="stop625" />



      <stop
   offset="0.4551"
   style="stop-color:#006A00"
   id="stop626" />



      <stop
   offset="1.0000000"
   style="stop-color:#003333;stop-opacity:1.0000000;"
   id="stop627" />



      <a:midPointStop
   offset="0"
   style="stop-color:#009933"
   id="midPointStop628" />



      <a:midPointStop
   offset="0.5"
   style="stop-color:#009933"
   id="midPointStop629" />



      <a:midPointStop
   offset="0.4551"
   style="stop-color:#006A00"
   id="midPointStop630" />



      <a:midPointStop
   offset="0.5"
   style="stop-color:#006A00"
   id="midPointStop631" />



      <a:midPointStop
   offset="1"
   style="stop-color:#003333"
   id="midPointStop632" />



    </linearGradient>

  <linearGradient
   inkscape:collect="always"
   xlink:href="#linearGradient2099"
   id="linearGradient2098"
   x1="0.36138615"
   y1="0.44000000"
   x2="0.26732674"
   y2="0.65333331"
   spreadMethod="reflect" />

  <linearGradient
   inkscape:collect="always"
   xlink:href="#XMLID_5_"
   id="linearGradient2397"
   x1="50.099098"
   y1="75.943398"
   x2="112.72990"
   y2="138.57410"
   gradientUnits="userSpaceOnUse" />

  <linearGradient
   inkscape:collect="always"
   xlink:href="#linearGradient2400"
   id="linearGradient2404"
   x1="-2.6281061e-16"
   y1="0.50000000"
   x2="1.0000000"
   y2="0.50000000" />

  <linearGradient
   inkscape:collect="always"
   xlink:href="#linearGradient3029"
   id="linearGradient3032"
   x1="0.56435645"
   y1="0.54666668"
   x2="0.72277230"
   y2="0.22000000"
   spreadMethod="reflect" />

<linearGradient
   inkscape:collect="always"
   xlink:href="#linearGradient2400"
   id="linearGradient2046"
   x1="50.019157"
   y1="90.537178"
   x2="93.079155"
   y2="88.270393"
   gradientUnits="userSpaceOnUse" />
<linearGradient
   inkscape:collect="always"
   xlink:href="#linearGradient2144"
   id="linearGradient2150"
   x1="50.019157"
   y1="90.537178"
   x2="93.079155"
   y2="88.270393"
   gradientUnits="userSpaceOnUse" />
<linearGradient
   inkscape:collect="always"
   xlink:href="#XMLID_3_"
   id="linearGradient2151"
   x1="50.099098"
   y1="75.943398"
   x2="112.72990"
   y2="138.57410"
   gradientUnits="userSpaceOnUse" />
<linearGradient
   inkscape:collect="always"
   xlink:href="#linearGradient2152"
   id="linearGradient2158"
   x1="0.36138615"
   y1="0.44000000"
   x2="0.26732674"
   y2="0.65333331"
   spreadMethod="reflect" />
</defs>
  <sodipodi:namedview
     id="base"
     inkscape:zoom="12.109204"
     inkscape:cx="16.778270"
     inkscape:cy="29.415457"
     inkscape:window-width="852"
     inkscape:window-height="771"
     inkscape:window-x="117"
     inkscape:window-y="175" />
  <metadata
     id="metadata549">
    <ns:sfw
   id="sfw9">
      <ns:slices
   id="slices11">
        <ns:slice
   x="0"
   y="0"
   width="256"
   height="256"
   sliceID="124417176"
   id="slice13" />



      </ns:slices>



      <ns:sliceSourceBounds
   x="0"
   y="0"
   width="256"
   height="256"
   bottomLeftOrigin="true"
   id="sliceSourceBounds16" />



      <ns:optimizationSettings
   id="optimizationSettings18">
        <ns:targetSettings
   fileFormat="PNG24Format"
   targetSettingsID="0"
   id="targetSettings20">
          <ns:PNG24Format
   transparency="true"
   includeCaption="false"
   interlaced="false"
   noMatteColor="false"
   matteColor="#FFFFFF"
   filtered="false"
   id="PNG24Format22" />



        </ns:targetSettings>



      </ns:optimizationSettings>



    </ns:sfw>



    <xpacket
   id="xpacket27">begin='﻿' id='W5M0MpCehiHzreSzNTczkc9d'    </xpacket>



    <x:xmpmeta
   x:xmptk="XMP toolkit 3.0-29, framework 1.6"
   id="xmpmeta30">
      
    <metadata
   id="metadata334">
  <rdf:RDF
   id="RDF32">
        <rdf:Description
   rdf:about="uuid:726872f6-5367-4b00-9d2b-f84f92608d1f"
   id="Description34">
          <pdf:Producer
   id="Producer36">
Adobe PDF library 5.00</pdf:Producer>



        </rdf:Description>



        <rdf:Description
   rdf:about="uuid:726872f6-5367-4b00-9d2b-f84f92608d1f"
   id="Description40" />



        <rdf:Description
   rdf:about="uuid:726872f6-5367-4b00-9d2b-f84f92608d1f"
   id="Description42" />



        <rdf:Description
   rdf:about="uuid:726872f6-5367-4b00-9d2b-f84f92608d1f"
   id="Description44">
          <xap:CreateDate
   id="CreateDate46">
2004-01-26T11:58:28+02:00</xap:CreateDate>



          <xap:ModifyDate
   id="ModifyDate49">
2004-03-28T20:44:56Z</xap:ModifyDate>



          <xap:CreatorTool
   id="CreatorTool52">
Adobe Illustrator 10.0</xap:CreatorTool>



          <xap:MetadataDate
   id="MetadataDate55">
2004-02-16T23:42:57+01:00</xap:MetadataDate>



          <xap:Thumbnails
   id="Thumbnails58">
            <rdf:Alt
   id="Alt60">
              <rdf:li
   rdf:parseType="Resource"
   id="li62">
                <xapGImg:format
   id="format64">
JPEG</xapGImg:format>



                <xapGImg:width
   id="width67">
256</xapGImg:width>



                <xapGImg:height
   id="height70">
256</xapGImg:height>



                <xapGImg:image
   id="image73">
/9j/4AAQSkZJRgABAgEASABIAAD/7QAsUGhvdG9zaG9wIDMuMAA4QklNA+0AAAAAABAASAAAAAEA
AQBIAAAAAQAB/+4ADkFkb2JlAGTAAAAAAf/bAIQABgQEBAUEBgUFBgkGBQYJCwgGBggLDAoKCwoK
DBAMDAwMDAwQDA4PEA8ODBMTFBQTExwbGxscHx8fHx8fHx8fHwEHBwcNDA0YEBAYGhURFRofHx8f
Hx8fHx8fHx8fHx8fHx8fHx8fHx8fHx8fHx8fHx8fHx8fHx8fHx8fHx8fHx8f/8AAEQgBAAEAAwER
AAIRAQMRAf/EAaIAAAAHAQEBAQEAAAAAAAAAAAQFAwIGAQAHCAkKCwEAAgIDAQEBAQEAAAAAAAAA
AQACAwQFBgcICQoLEAACAQMDAgQCBgcDBAIGAnMBAgMRBAAFIRIxQVEGE2EicYEUMpGhBxWxQiPB
UtHhMxZi8CRygvElQzRTkqKyY3PCNUQnk6OzNhdUZHTD0uIIJoMJChgZhJRFRqS0VtNVKBry4/PE
1OT0ZXWFlaW1xdXl9WZ2hpamtsbW5vY3R1dnd4eXp7fH1+f3OEhYaHiImKi4yNjo+Ck5SVlpeYmZ
qbnJ2en5KjpKWmp6ipqqusra6voRAAICAQIDBQUEBQYECAMDbQEAAhEDBCESMUEFURNhIgZxgZEy
obHwFMHR4SNCFVJicvEzJDRDghaSUyWiY7LCB3PSNeJEgxdUkwgJChgZJjZFGidkdFU38qOzwygp
0+PzhJSktMTU5PRldYWVpbXF1eX1RlZmdoaWprbG1ub2R1dnd4eXp7fH1+f3OEhYaHiImKi4yNjo
+DlJWWl5iZmpucnZ6fkqOkpaanqKmqq6ytrq+v/aAAwDAQACEQMRAD8A9U4q7FXYq7FXYq7FXYq7
FXYq7FXYq7FXYq7FXYq7FXYq7FXYq7FXYq7FXYq7FXYq7FXYq7FXYq7FXYq7FXYq7FXYqlvmDzFo
3l7TJdT1e5W1tItuTbszHoiKN2Y+AxV4j5g/5ydvTcMnl/SYlgU0Se/LOzDxMcTIF/4M4qk//QzP
nv8A5YNL/wCRVx/2UYq7/oZnz3/ywaX/AMirj/soxV3/AEMz57/5YNL/AORVx/2UYq7/AKGZ89/8
sGl/8irj/soxV3/QzPnv/lg0v/kVcf8AZRirv+hmfPf/ACwaX/yKuP8AsoxV3/QzPnv/AJYNL/5F
XH/ZRirv+hmfPf8AywaX/wAirj/soxV3/QzPnv8A5YNL/wCRVx/2UYq7/oZnz3/ywaX/AMirj/so
xV3/AEMz57/5YNL/AORVx/2UYq7/AKGZ89/8sGl/8irj/soxV3/QzPnv/lg0v/kVcf8AZRirv+hm
fPf/ACwaX/yKuP8AsoxV3/QzPnv/AJYNL/5FXH/ZRirv+hmfPf8AywaX/wAirj/soxV3/QzPnv8A
5YNL/wCRVx/2UYq7/oZnz3/ywaX/AMirj/soxV3/AEMz57/5YNL/AORVx/2UYq7/AKGZ89/8sGl/
8irj/soxV3/QzPnv/lg0v/kVcf8AZRirv+hmfPf/ACwaX/yKuP8AsoxVFad/zk75oS4B1HSbG4t+
6W/qwP8A8E7zj/hcVeyeRfzJ8tec7Vn0yUx3kQBuLCaizJ25AAkMlf2l+mmKsqxV2KuxV2KuxV2K
vm/XDqf5ufmk+j287Q+XtJLqJF3VIY2CSzAHYvM9AvtTwOKvePLfk/y35bs0tdHsYrZVFGlCgyuf
GSQ/Ex+ZxVOK4q6oxVrkMVdyGKu5jFWvUGKu9RffFWvVX3xV3rL74q71l8DirXrp4HFXfWE8DirX
1hPA4q76yngcVd9Zj8D+GKtfWo/A/hirvrcfgfw/rirvrcfgfw/rirX1yLwb8P64q765F4N+H9cV
d9di8G/D+uKtfXovBvw/riqVa/5X8r+abR7TV7GO55CiyMoWZP8AKjkHxKR7HFXzB5n0XXfys8/R
NZXBJgIudOujsJYGJUpIB8ijj+oxV9VeWtfs/MGhWWsWf9xexLKErUoxHxI3up2OKplirsVdirsV
Q+oMy2Fyy/aWJyvzCnFXhP8AziwqvL5nmYcpQLIBz1oxuC2/uVGKvficVaxVrFWicVaJxVrFWsVa
JxVonFWsVaxVrFWicVaxVrFWicVaJxVrFWsVaJxVonFWsVaxVdCSJkp/MP14q8V/5ypRBJ5ZkCjm
wvVZu5CmAgfRyOKsn/5x3vJX8lwWzElQZmSvbjMR/wAbYq9XxV2KuxV2KofUv+Oddf8AGGT/AIic
VeE/84pn/lKP+jD/ALGcVe+nFWsVaJxVonFWsVaxVonFWicVaxVrFWsVaJxVrFWsVaJxVonFWsVa
xVonFWicVaxVrFWicVXQ/wB9H/rD9eKvFv8AnKw/8ov/ANH/AP2LYqn/APzjn/yisHyuP+T4xV6/
irsVdirsVQ+pf8c66/4wyf8AETirwf8A5xRNf8U/9GH/AGM4q9+PXFWicVaJxVrFWsVaJxVonFWs
VaxVrFWicVaxVrFWicVaJxVrFWsVaJxVonFWsVaxVonFWicVXQ/30f8ArD9eKvFf+crjT/C3/R//
ANi2Ksg/5xy/5RS3+Vx/yfGKvYMVdirsVdiqH1L/AI511/xhk/4icVeDf84nmv8Ain/ow/7GcVe/
HrirROKtYq1irROKtE4q1irWKtYq0TirWKtYq0TirROKtYq1irROKtE4q1irWKtE4q0TirWKroP7
+P8A1h+vFXiv/OWBp/hb/o//AOxbFWQf844f8onb/K4/5PjFXsOKuxV2KuxVD6l/xzrr/jDJ/wAR
OKvBP+cTD/ylX/Rh/wBjOKvf2O5xVrFWsVaJxVazAAkmgG5JxV4p+ZX/ADkRY6bK+ieTEXVtZc+k
bxQZII3O1Igv9+/hT4fn0zEy6oDaO5eh7P7ClP15fTHu6n9X3sL0n8/fzM8tanFF5zgF9Z3FGDGK
KKRV2r6bQBI2pUVU7jKseqkD6t3P1fYOKcf3Xpl8aPz3e/8AlLzv5d816et7pF0sykfHFWjoe4Ze
uZ0ZCQsPKZsE8UuGYop6TkmprFWsVaJxVonFWsVaxVonFWJebvzD0vQg9tBS71MbCBT8MZ/4tYdP
9Xr8swNVr44thvL8c3c9ndjZNR6j6cff3+79bB/8b/mFasNRuqm0kNTC0aBVFdtgOa+ALZocfbkj
kI4hIjmPx+O96GXY2jnHgjtLvs/2FnXlfz7pmtIscjC3vOhRjQE+1c6PTayGYek79zyuu7My6Y+o
enoejJycynXtE4q1irWKroD+/j/1l/XirxT/AJyzP/KK/wDR/wD9i2Ksh/5xv/5RK3+Vx/yfxV7F
irsVdirsVQ+pf8c66/4wyf8AETirwL/nEo/8pV/0Yf8AYzir6AbqcVaxVonFUl81+cPLvlXTG1HX
LxLW3FRGp3klcCvCNB8TN8vp2yE5iIsuRptLkzS4YCy+cfNX5lee/wA0bmXStCibSfLAJWck0LqP
+WiVepP++k+mtK5r8ueU9hsHsdD2Vi03ql6sn3e79aZ+WfJOj+XYq26+vesoEt7IPjO24QbhFPgP
pJplDtLJ5o/UtPstQtXtb2FZ7eT7UbjbwqCNwRXYjcYGyred3XlrzP5N1D9N+UbqVo4yC8A3lC9w
yjaVfl8Q+jlk8eQxNhxdVpIZY8MxY7+57F+WH/OQmjeYRFpuvFdP1c0VXJ/dSn/JPY+2bHFnEve8
dr+yZ4Nx6od/d73sCurqHUhlYVDA1BGXupcTirROKtYq1iqheXtpZ2z3N3MkFvGKvK5CqPvyMpiI
s7BnjxSnIRiLJeY6/wDmHq2uXDaV5XjeOI1El39mRl6VBP8Adr7nf5Zz3aHbEYRNHhj3/q/FvW6L
sXHgHiag2e7p+0/Yo6N5StdNpPcEXN9sfUP2Ebr8APev7R/DPP8AXdszy+mHpj9p/U5mbWHJsNop
lMKgg9Dsc1cJEGw1xYxqXl1RL9Z05vQnBJ9IbKT/AJJ/Z+XT5Zv9H2rIEcRo/wA52OPUCUeDIOKJ
/HxTnyz+Y15YuLDWlZkWi822dfv/AI522h7bjKo5f9N0+Lou0fZ3bxNPvH+b+r9XN6TZ31reQLPb
SCWNu47HwI7HOhBBFh5SUSDR5q2FDROKr4P7+P8A1l/XirxL/nLU/wDKK/8AR/8A9i2Ksi/5xt/5
RG2+Vz/yfxV7HirsVdirsVQ+pf8AHOuv+MMn/ETirwH/AJxINf8AFf8A27/+xnFX0C32j88VWk4q
8o/ND8/NB8qerpmj8NW8wCqGJTWCB+n751+0wP7CmviVzGzakR2G5d32d2LPPUp+nH9p9363kln5
N81ectUPmHz5dTEsR6Vix4OUG/DiKCCP/JA5deh3OCbkbk9VjGPDHgxCh+Pm9AtrK0srWO1tIlgt
4RxjiQUUD6PxwMgskyJbYoaTAW2KHfrkW0MT81fl/putcrq2IstTNW9ZR8EjHf8AeqO9f2hv41yQ
k1Tw3yd5L/OTzj5Cvk0XzTFJeaWNo5GPJwn88cn+7F/Ed99szMWoI2O4eZ1/Y0ZXLH6Zd3T9n3Pp
Hyz5t0HzLpyX+j3SXELipCn4lPgw6jM4SBFh5jJilCXDIUU3wtbWKsd81+eNH8vRFZm9e+IrHZxk
czXoXP7C+5+iuYuo1cMQ33Pc7LQdl5dSdtofzv1d7z0WfmfztcLfarKbTSlNYYlBCkf8VIeu37bf
j0ziO2PaCMDRPFP+aOnv/FvUx8DRR4cY4p9T+v8AUyuy0qx021FtZxCOMfaP7TH+Zj3OcLqdZkzy
4pn9QcCeaWSVyK2XK4tkUFLl0W+KCly6LkRQV7p9tex8Jl3H2JBsy/I/wzLw6mWP3dzfiyygbCX2
V9rnlmcSwSGS0ruR9kjwZe3+dDnS9m9tTxfT6ofzT+NvuXV9n4NcL+jL3/jn970fy3510zWkVOQh
u9uUTHqT4V/V+vO30mux6iNwO/d1DxGu7NzaWVTG3Q9CyEnMxwF8H9/H/rr+vFXiX/OW5p/hT/t4
f9i2Ksj/AOca/wDlD7b5XP8AyfxV7HirsVdirsVQ+pf8c66/4wyf8ROKvn//AJxGNf8AFf8A27/+
xnFXvWp6hZ6dZXN/eyrBZ2qPNcTP9lUQVZj9AwE0LLOEDOQjEWS+b/OP5y+b/P17J5e8iwS2OlMe
Fzfn4JnjPVpJBtBGadAeTdO/HNfk1BntHk9houxseAceb1T7un7fu+9FeTfyy0jy6Eu7il9q9Km5
cfBGTufRU9P9Y/F8q0yoRpz8mcz9zKpMSiKGkyJbYoeTIluihpMBbYoZ+uRbQtwJQup6Xp+p2jWl
/AtxA2/FhuD05KRup36jCDTGcBLmwF9G84eQb8615Vu5JrJPjmi6sqr/AL9jFA6gftrQjfYDMjHl
I5Op1ugjkFTF+fc94/Kf86LDzpbG3uoTaarBxWZRujFq0YH3pmwxZBIPG63RSwSo7g8iq+afzHvZ
71tD8rxNNdljE92BU8hswiHTbu7bfrzVa7tSOMGjQHORd12f2LER8XOajzr9f6v7FLy7+XccMn6R
15/ruoSHmYWPONWJrVyf7xvw+fXPNO1PaSWQmOHYfzup93d7+fucrVdqEjgxemH4+TLJRnMg3zdd
FBS5dFvigpcui5EUHLl0XIigpcui5EVLJs2iAQQRUEUIO4IPY4YyINhUi1Dy/NHJ9a0pzFMu/o1o
D/qk/qO36s22j7RMZA3wy7/x/Y5g1EckeDKOKJT7yh+ZVyLhdL1mNvUX4RIdnBHYg7/fnfdmdq+M
eCf1d/e8t2z2GMEfFxG8f3X94en2ciSSQyIao7KVPsSM3bzTxP8A5y5NP8Kf9vD/ALFsVZJ/zjV/
yh1t8rn/AKiMVeyYq7FXYq7FUPqX/HOuv+MMn/ETir59/wCcQz/yln/bv/7GcVeofnOf+QY+ZP8A
mEb/AIkMqz/QXYdlf4zD3vl78v8AznqOgW4SMCaxd2Mts1BU/wAysBUNmglnMJeT63h7Kx6nBZ2n
vv8ArezaJ5k0rXLb1rKWrqP3sDbSIf8AKX+I2zMx5YzGzzmr0GXTyqY9x6FGSZItEUNJkS2xQ0mA
tsUNJkS3RQ75FtCzAlSubq3tYGnuJFihTdnY0GJLKMSTQYD5i8+XFzyttLLQW/RrjpI/+r/KPx+W
UyydzsMOkA3kiP8AnHkk+YdRJ68Y/wBb5uNL1fOu3/4feXovk69ubPVNQlgbi3IVHUEcm2Oed+0U
RMRB5WXo9XhjPHESelabrtteqI3/AHVx/Ieh/wBU/wAM4jNpTDcbh5zPo5Y9xvFES5VFqig5cui5
EUFLl0XIigpcvi3xQcuXRciKjk2xokAVOwHU4qld9rIWsdtuehk7fRmVj0/WTm4dL1kxa2kZ/NkR
YlmLCpO5/u863sEfvYfH7i1duitDOv6P+6D6C0A/6LZf7H/iWdy+avHP+cvD/wAon/28P+xbFWS/
840f8oba/K5/6iMVey4q7FXYq7FUPqX/ABzrr/jDJ/xE4q+fP+cQT/yln/bv/wCxnFXqH5z/APks
fMv/ADCN/wASGVZ/oLsOyv8AGYe98faP/vEP9Y5zOo+p9u7I/uPiU0s7y6s7hLm1laGeM1WRDQjK
oyINh2GXFHJHhkLBekeW/wAx7e8C2ur8be56LcjaJz/lfyH8Plmfi1QO0nk9f2FLH6sXqj3dR+v7
2XOQRUGoPQjMl0YQ8mAtsUNJkS2xQz5FuCR6/wCadO0dCrn1rsiqW6nf5sf2RkJSAcjFglP3PN9Z
17UdWn9S6k+AH93AuyJ8h4++UykS7TFhjAbJeiO7BUBZj0AyIDXqtXi0+M5MshCEeZLJ/wAun1ry
xPdX1nAt1MyB7hODukcaVNWKEU+1uembCOp4OT4F217VfmMlYI3CN7m9/h0HvZn5N8zWkt9cpdFb
eWehjqfhJqSRU9Oucj27pZmIlHcC3tey/ajT66EY/RlH8J/R3s7B7j6DnKu8Taw16VAIrqskfQSf
tD5+OYmXTA7x2Lg5tGDvHYpoZY5UDxsGQ9CMxeEg0XD4SDRQsuWxbooKXLouRFBS5dFyIoO5u4bd
OUjU8FHU/LL4YzLk348ZkdkivdRmuSV+xF2QfxzOx4hH3uyxYBD3oTLW9KbRv+dwiH+UP+TWdJ2E
P3sP877i6vt7/EZ/5v8Aug+h9A/3lsv9j/xLO2fNXjn/ADl8f+UT/wC3h/2LYqyX/nGf/lDLX5XP
/URir2bFXYq7FXYqh9S/4511/wAYZP8AiJxV89f84fmv+Lf+3f8A9jWKvUfzo/8AJY+Zf+YVv+JD
Ks/0Fz+y/wDGYe98f6N/vEP9Y5zWo+p9u7H/ALj4lHZQ7V2Ksi8u+dNR0njBJW5sf98sfiQf8Vt2
+XTL8Wcx26Oq13ZWPP6h6Z9/f73ounaxp+qW/r2cocftodnU+DL2zOjMSFh5XPpcmGXDMUuuJY4o
2klcJGgq7sQAAO5JwljEW898y/mByLW2jnbo94R/ybB/Wf7colk7na4NH1l8mDu7yOzyMXdjVmY1
JJ7knKXYAUrWtjNcGo+GPu56fR45KMbeW9ova3S9mRqR483SA5/5380fb3AvQ/J/5a3l+iXNwrWe
nNQ+qw/ezA7/ALsHt/lHbwrlebURx7Dcvh/avbGr7UyceolUB9MR9I9w/wB8d3pdrpdhpdqtrYwi
GJdzT7TN/MzHdj881OTLKZsuJGIiKDDvM/kmyvma6sCLO9rUgbROfcD7J91+6prmVh1dbS3DCWLf
ijtJItI85avoNyNO1qJzEvTluyitKqw2ZduozD1vZEMo48ex+x6zsf2qnirHqd4/zuvx7/e9E07U
7HUbdbi0lWWNvA7j5jOWzYZY5VIUX0LDnhliJQNxKPt7qa3asbbHqp6HMeUBLmmeMS5pnFexXAoP
hfup/hmNLEYuJLEY+5TmyUWcWP6nrUURMdvSSTu37I/rmww6YneTs9PpCd5bBIJZZJXLyMWY9zme
AAKDs4xAFBZhZOxVJLVv+d2iH+UP+TOdN2EPXD/O/S6vt7/EZ/5v+6D6M0D/AHlsv9j/AMSztHzV
41/zmAaf4S/7eH/YrirJv+cZf+ULtPlc/wDURir2fFXYq7FXYqh9S/4511/xhk/4icVfPH/OHpr/
AIt/7d3/AGNYq9S/Oj/yWPmX/mFb/iQyrP8AQXP7L/xiHvfH+i/7wj/WOc1qPqfbuxv7j4lH5Q7V
2KuxVXsr67sbhbi0laGVejL3HgR0I9jhjIg2GrLhhkjwyFh3mHzTq+rv6dzIEgSgEEdVQkftEdz8
8yjkMhu6SOkhikRFJlUsQqipOwAyKcuWOOJlMiMRuSdgE80TyxfahdxW8MD3FzKaR20Yqfmx7Ad+
w75aIVuXyP2j/wCCHKZODQe45P8AiB/vj8B1e1+UvypsdMRLvWlS7vQKpajeCLwqCPjb5/D89jmH
qdSaqL5sNOSTPIeOZ53v/aWXXI65qm5KrkdcVSq5HXFUm1PSrDU7c297EJE34N0ZCf2kbsdv65bj
yygdkEA82C3uleYvKVyb/TJWuNPBq5ArxHWkqDt/lDbxpWmZOSGLUxqQ3c3s/tHPo5XjPp6jp+PN
mflbz/pesqsMrC2vabxsaBj/AJJzmdb2Vkw7jeL6R2X25h1YoemfcWVA03Gat3SW67qN38FuHpGy
1amxO/c5k6bFHnW7l6PBH6q3SPM12LsVdirsVY/at/zvkQ/yh/yYzqOwh6of536XV9vf4jP/ADf9
0H0hoH+8tl/sf+JZ2T5q8Z/5zCNP8Jf9vH/sVxVlH/OMf/KFWnyuf+ojFXs+KuxV2KuxVD6l/wAc
66/4wyf8ROKvnf8A5w6P/KXf9u7/ALGsVep/nOrN+WXmYKCx+qOSBvsGBJ+gZVm+gud2Yf8ACIe9
8e6HLGbT0ww5qxJXvQ5zepieK32vsTLE4uG/UCdkxzHdy7FXYq7FULHZzXNw6xjYH4mPQZk44kh4
v2j9otL2ZEzzH1G+GI+qXu/STs9D8hflZquvOssKfV9PH97qUq7GhoViX9s9em3icyoYnwntj2g1
vbM/WfD0/SA5fH+cfPkOlPddA8paJ5cszb6bDR2/vrl6NNIR/M1Bt7Db2yvM4WPBHGKiiZ81OZjN
LLkdcw2pKrkdcVSq5HXFUAeuKuBINR1wqw3zJ+X1tc8r3RiLO9X4hAvwxOwNfhp/dt8vh6dNzmdh
1Y+me4TEmJsGiEH5f/MTVNGuv0T5jicemQvqMKOvgT2K+BG2Ymu7DjkHHh59z2fZPtMRUM/+m/X+
tmupXdvdmGe3cPGyVBHzOc/hxmFg830jQzEoWEFlznOxV2KtO6RoXdgqKKszGgA9ycQCdgrGNInW
+8+RTWtZIuVeQB6CLhX5cs63sXGYyiDz3/S6vt81opg/0f8AdB9L6BX6tZf7D9eda+avGf8AnMU/
8oj/ANvH/sVxVlH/ADjF/wAoTafK6/6iMVe0Yq7FXYq7FUPqX/HOuv8AjDJ/xE4q+df+cOD/AMpf
/wBu7/saxV9CXUMM6SwzossMoZJInAZWVtmVlOxBHUYpBINh88/mb/zjY6vJrHkQ8HFXl0Z2p8/q
0jH/AIRj8j0GYWbSg8vk9N2d29KJAyGiOUh+l4nHqVxbXUljqsL2t3CxjlWRSjK67FXU0KnNPl0p
HJ9I7P7djMAZD/ndD+PkmQIIqNwehzDeiBt2KXYqmnlfib6BXUOrXiBkYAqRyXYg9RmXGRGMkdz8
5f8ABSF9rY/+FR/6aTfS/lzzbp9xFFZTollKihIlUBYSAKAJ2X5YdN2hGe0tpfY81izA7ck9nyzM
yml8+anM400tuR1zCakpuR1xVKrkdcVS9upxVrFULqGp2lhF6lw9CfsIN2b5DLsWCWQ0GrLljAWX
mnn3WJdStI3dFRI5QIRQFlDK1fjpXegr2ze6TAMewaNNqDkme5lXlsk6ba1P+6E/jnJa4fvJf1i+
8ez/APi8f6o+5Nsw3fOxVBalq1np8fKZqufsRL9o/wBnvl2HBLIdkiNpPYaX5j84XIWJTBYcqBqH
h1psP22zpOz+yr5fN1/aHa2HSDf1T/m/r7g9k8m/lrpWhwBmj5TNu7Nu7f6zD9QzqcGmhiFReA1/
aWXVSuZ26DoGdWoC3EIAoA6gAfMZe694b/zmOf8AlEP+3j/2K4qyn/nGD/lB7P5XX/UTir2nFXYq
7FXYqh9S/wCOddf8YZP+InFXzn/zhsa/4v8A+3d/2NYq+iJP7xvmcVWE4qwf8xvyk8q+ebUm9i+q
asq0t9VgUeqtOiyDYSJ/kt9BGVZMQk52j1+TAdt49z5d85eRPOX5eXwg1SD6xpcjEW1/FVoJPYNT
92/+Q34jfNXqNJ3/ADe97H9oqFRNx6xPT3fikHaXtvdJyhapH2lOzD5jNVkxmJ3e80mtx543A/Dq
FfIOWmPlg01K2H/L5H/xJcyT/dH3H7n50/4KA/12h/wqP+7m9ZzRvGJ/o3my7swsFzWe1Gwr9tB7
E9R7HMvFqpRFHcNkchGxZTHeW15CJreQSIe46g+BHbJZJAiwmRtCXPfMJqSm574qlVz3xVLm6nFW
P6x5pgtuUNnSacbM/wCwv9Tmw0+iMt5bBws+sEdo7liVxcT3EplncySN1Y5tYxERQ5OslIyNlJPM
5ppif8Zl/wCIPl+Eer4Od2d9Z9zO/LP/ABzLX/mHj/jnFa/+8l/WL797P/4vH+qPuTckAVOwHU5h
O+SDVPMtH+q6avr3DHiHUchX/JA+0c2Gm0BkfV8mVAC5Ggnvk/8AKvUNVuBfayS1TyMTGo/56N/x
qP1Z1+j7KEQDP5freS7U9pecNP8A6b9X6/7Xs+k6HYaXAsVtGAVHEMABQdKAdhm6AAFB46UjI2TZ
KYYWKpa/70xf66/rxV4X/wA5kmn+EP8At4/9iuKsq/5xf/5Qaz+V1/1E4q9qxV2KuxV2KofUv+Od
df8AGGT/AIicVfOX/OGhr/jD/t3f9jWKvoiT+8b5n9eKrCcVaxVDahp9jqNnLZX9vHdWc6lJreZQ
6Mp7FTtgItlGZibBovnL8zP+cb77Tnl1ryKzzwrV5NHY1mQdT6DH+8X/ACG+L3bMPNpQRtyel7O7
dlCQ4jwy/nD9P4p5HaazSVrW/Q291GxRw4K/EDQhgd1PzzTZtKRvF9J7O7ehkqOX0y7+h/V9zI/L
TD9K2o/5fI/+JLkD/dH3H7nxj/gn/wDGrD/hUf8AdzeuZpHinYqr2l7c2kvqW7lG7jsR4Ed8INKy
Oz12C8UJJSK4/l/ZP+qf4Yqtue+BUi1a/tLKEzXMgjToK9SfADucsx45TNBhPIIiy8+1nzNc3xaK
GsNqdiv7TD/KP8M3Gn0kYbneTq8+qM9hsElzLcR2KpP5qNNMT/jMv/EHzI0w9Xwdj2b9Z9zMtC1G
zttFtZpZRw+roAAakkVqAPHOM1mGUs0gB/EX3/2fifAH9UfcsiGueZ7g21jGYrQGjtuF/wBm3c+w
zYaDssyOws9/QOz1uvw6WNzO/QdT+O96v5J/K2w0pFuLpedwQOTsPjPy/lH451um0cMQ23l3vAdp
dsZdUaPph/NH6e96DHHHEgjjUIi9FGwzLdS3irWKqlr/AL1Q/wCuv68VeF/85lmn+D/+3j/2K4qy
r/nF3/lBbP5XX/UTir2vFXYq7FXYqh9S/wCOddf8YZP+InFXzh/zhia/4w/7dv8A2NYq+iZT+8b5
n9eKrMVaxVonFWicVee/mX+S3lbzxG1zIv6O1wLSLU4VBLU6CdPhEo+kMOxplWTEJe9ztJr54duc
e54Zc/l9f+Q/M+m6Pe3kd7LcSQXaywhlUK8vphSG3r+6zTa+HCCP6P63mPabVDPq4Sr+AD/ZSei5
zLrHYq7FXYqu1HzFdafpU0xUTtGB6fM03Zgu/jSuXYMYnMRLVmycESXm2oale6hcG4u5DJIeg7KP
BR2Gb7HjjAUHSzyGRsobJsHYq7FUl82mmlp/xnX/AIg+ZWkHr+H6nZdmfWfc9H/L38n/ANKWFvey
X4Ns8ccpt+JQ/EK05gt+rBPswSnxSOz67pfaKWLTiEI+rhAv9j23QfLGm6PbpHBEoZBtQAAfIfxz
ZQgIigKDosuaeSRlM3IpuTkmtrFWsVaxVUtT/pUP+uv6xirwr/nM40/wf/28v+xXFWV/84uf8oJZ
fK6/6icVe2Yq7FXYq7FUPqX/ABzrr/jDJ/xE4q+b/wDnC81/xj/27f8AsaxV9Ey/3j/M/rxVZirR
OKtE4q1irWKvA/zvdV/M7QyxAUW1qSTsAPrcuaXtTr/V/W832t/fx/qj7yjs5Vx3Yq7FXYqlfmf/
AI4dz/sP+Ti5laP+9Hx+5xtX/dn8dWB5vXTOxV2KuxVIvOEiDTY4yw5tMrBa7kBWBNPpzN0MSZn3
O07LieInpT6T/KIEeWbSop/o0P8AxHNiXt8f0j3M7JwM2sVaxVrFWicVVLX/AHqh/wBdf1jFXhX/
ADmgaf4O/wC3l/2K4qyz/nFr/lA7L5XX/UScVe2Yq7FXYq7FUPqX/HOuv+MMn/ETir5t/wCcLTX/
ABj/ANu3/saxV9FS/wB6/wDrH9eKrCcVaJxVrFWsVaJxVhn5iflppPnK2RpJDaapbqVtbxRyHEmv
CRduS1+kfrx9RpxkHm4Ws0Ucw7pDq8Ru5vN3kK+XTPMNs09gdre4Q8lZR3hkNOVB+w1CPbOc1egI
PcfsLoMmGeI1IMq03VLDUrYXFlMs0R2JHVT4MDuD881M4GJooBRWQS7FUr8z/wDHDuf9h/ycXMrR
/wB6Pj9zjav+7P46sDzeumdirsVSTUvMSrILTTk+tXbnipUclDE0AUD7bfLb9WZuDSGW8tg7XS9n
GW8/kzf8v/yO1PWLlNU8zcuJIf6oT93qn/jQZshURUXqNPohEC/k+iNK0q10y1FvbigAAJ6dOgA8
Mi7FGYq1irWKtE4q1iqpa/71Q/66/rGKvCf+c0jT/B3/AG8v+xXFWW/84sf8oFY/K6/6iTir23FX
Yq7FXYqh9S/4511/xhk/4icVfNf/ADhWf+Uy/wC3b/2N4q+i5T+9f/WP68VWE4q1irWKtE4q0Tir
WKoLVtI0zV7GSw1O2ju7SUUeGQVHzHcEdiNxkZQEhRYThGQoiw8H85fk75j8qXL635NllvLJamay
+1PGvUjiNpk+jkPA9c1Wp7PBG24dLqOzzDeG4QHlnz7p+qlbW7pZ6iaL6bGiSN0+AnvX9k/jnP6j
RShuN4uAynMJUr8z/wDHDuf9h/ycXMrR/wB6Pj9zjav+7P46sDzeumUbu8t7SEzTuEQdK9SfADuc
nCBkaDbiwyyGohK9PsvMnnG8Njo8DR2YNJpmqFAP+/GH/ER+ObPDphDc7l6HQ9m0b5nve9/lz+S+
keXo0urpfXvyPjncfHv1CD9hfxzIJehxYIw9706OOOJBHGoVF2CjYYG9vFWsVaxVonFWsVaxVUtP
964f+Mi/rGKvCP8AnNQ/8ob/ANvL/sUxVl3/ADiv/wAoDY/K6/6ijir27FXYq7FXYqh9S/4511/x
hk/4icVfNP8AzhQa/wCMv+3b/wBjeKvoyY/vX/1j+vFVmKtYq0TirROKtYq1irROKtE4q84/Mb8l
tA81iS+s+Oma4RX6yg/dTN/xcg7/AOWu/jXplOTCJb9XD1Gijk3G0njv6c82+R9RGjebrSV4P903
P2iU/mjk6Sr9NR+GaTV9lCW8fTL7C6bLglA0WS6vqNjqPlma6splnt34cXX/AIyLsR1B8Qd81Onx
ShmEZCjv9zgasfuz+OrzbVdft7ImGIevdbjgPsqf8oj9Q/DOiw6cz35BxNNoZT3ltFkXkj8n/MHm
m6TUNe5wWhoVt/syMvv/AL7X8TmzhAQFB6nS9niI3FDufRXlvylo+g2cdvZQJGIxRQq0A+Q8fc75
J2sYgCgnROKWsVaxVrFWicVaxVrFWsVVLQ/6XD/xkX9YxV4P/wA5rmn+Df8At5f9imKsv/5xV/8A
Jf2Pyu/+oo4q9vxV2KuxV2KofUv+Oddf8YZP+InFXzR/zhMa/wCM/wDt2/8AY3ir6Nm/vX/1j+vF
VPFWicVaJxVrFWsVaJxVonFWsVaxVLPMHlzRPMOnPp2sWiXdq/7Lj4lb+ZGFGRvdTgIthPGJCi8G
8x/849ecNOvZ08pX4n0m7oHhml9GVQCCBJQcHp2Yb+3jVLBEkEi6dZl7PJO2482T/l1+Q9norpe6
xxuNQXfmaFUPhGu//BHLnNwaWMNzuXrtvbw28QihQIg7D+OLkrycVaxVrFWsVaJxVrFWsVaxVonF
VW0/3rg/4yL/AMSGKvBv+c2TT/Bn/by/7FMVZf8A84qf+S+sPld/9RRxV7hirsVdirsVQ+pf8c66
/wCMMn/ETir5m/5wkP8Aymf/AG7P+xvFX0dN/fP/AKx/XiqmTirROKtYq1irROKtE4q1irWKtE4q
1irWKtYq0TirWKtYq1irROKtYq1irWKtE4q1iqrZ/wC9cH/GRf8AiQxV4L/zm2f+UM/7ef8A2KYq
zD/nFL/yXth8rv8A6ijir3HFXYq7FXYqh9S/4511/wAYZP8AiJxV8y/84RH/AJTT/t2f9jeKvo6c
/vn/ANY/rxVTJxVrFWsVaJxVonFWsVaxVonFWsVaxVrFWicVaxVrFWsVaJxVrFWsVaxVonFWsVax
VVs/97IP+Mi/8SGKvBf+c3T/AMoX/wBvP/sUxVmP/OKH/kvLD5Xf/UUcVe44q7FXYq7FUPqX/HOu
v+MMn/ETir5j/wCcHzX/ABp/27P+xvFX0fOf30n+sf14qp4q1irROKtE4q1irWKtE4q1irWKtYq0
TirWKtYq1irROKtYq1irWKtE4q1irWKtYqq2Z/0yD/jIn/EhirwT/nOA0/wX/wBvP/sUxVmX/OJ/
/ku9P+V3/wBRRxV7lirsVdirsVQ+pf8AHOuv+MMn/ETir5g/5wgkVJ/Olu54zkacwjOzUQ3Qbb2L
CuKvpG4qJpK/zH9eKqeKtE4q0TirWKtYq0TirWKtYq1irROKtYq1irWKtE4q1irWKtYq0TirWKtY
q1irROKq1iCbyAAVPNT9xrirwD/nOGaMy+TIgwMiLqTsncKxtQp+nicVZt/zieGH5dafUEHjdnfw
N0SMVe5Yq7FXYq7FVskayRtG32XBVvkRTFXxjrN7rf5Efnjca1FbNP5e1ZpDLAtFWW2mcPLGldg8
MlGT2p2JxV9U+U/PHknzvp8d/wCX9UhvA61eFHC3EZ7rLCfjQj3Hy2xVPP0dF/M34Yq79GxfzN+G
KtfoyL+dvwxV36Mi/nb8MVd+i4f52/DFWv0VD/O34Yq79FQ/zt+H9MVa/RMP87fhirv0TD/O34Yq
79EQfzt+H9MVa/Q8H87fh/TFXfoeD+dvw/pirv0NB/O34f0xVr9Cwfzt+H9MVd+hYP8Afj/h/TFW
v0Jb/wC/H/D+mKu/Qdv/AL8f8P6Yq1+g7f8A34/4f0xV36Ct/wDfj/h/TFXfoK3/AN+P+H9MVa/Q
Nv8A78f8P6Yq79AW3+/H/D+mKpN5n84eRPIlhLqGvanDacVJSKRw1xJ4LFCvxuT7D57Yq+IvzF87
a9+cH5kLcWtu0ccvG00myJr6NshLcpCNqmrO5+joBir7H/J7y5HoWhW1jAP3NpbpEGIoWJp8R924
VPzxV6FirsVdirsVdirE/wAxvy38v+etDk0zVYlL0rBPSrI46Ed/uxV8j+b/APnFvzbpN66WEyyw
En0zMGK8faSMNX6UGKsd/wChfPP3ja/8FP8A9UsVd/0L55+8bX/gp/8Aqlirv+hfPP3ja/8ABT/9
UsVd/wBC+efvG1/4Kf8A6pYq7/oXzz942v8AwU//AFSxV3/Qvnn7xtf+Cn/6pYq7/oXzz942v/BT
/wDVLFXf9C+efvG1/wCCn/6pYq7/AKF88/eNr/wU/wD1SxV3/Qvnn7xtf+Cn/wCqWKu/6F88/eNr
/wAFP/1SxV3/AEL55+8bX/gp/wDqlirv+hfPP3ja/wDBT/8AVLFXf9C+efvG1/4Kf/qlirv+hfPP
3ja/8FP/ANUsVd/0L55+8bX/AIKf/qlirv8AoXzz942v/BT/APVLFXf9C+efvG1/4Kf/AKpYq7/o
Xzz942v/AAU//VLFXf8AQvnn7xtf+Cn/AOqWKu/6F88/eNr/AMFP/wBUsVd/0L55+8bX/gp/+qWK
ovTP+cc/OVxcBLueCCLu8Ylkb/gWWP8AXir3r8rPyT0zy4P9FhM97IB691LQuR1oxAoif5I698Ve
76bYR2NqsKbnq7eLHviqKxV2KuxV2KuxV2KrZIo5VKSIHQ9VYAj8cVQp0bSyf95k+7FXfobS/wDl
mT8cVd+htL/5Zk/HFXfobS/+WZPxxV36G0v/AJZk/HFXfobS/wDlmT8cVd+htL/5Zk/HFXfobS/+
WZPxxV36G0v/AJZk/HFXfobS/wDlmT8cVd+htL/5Zk/HFXfobS/+WZPxxV36G0v/AJZk/HFXfobS
/wDlmT8cVd+htL/5Zk/HFXfobS/+WZPxxV36G0v/AJZk/HFXfobS/wDlmT8cVd+htL/5Zk/HFXfo
bS/+WZPxxV36G0v/AJZk/HFXfobS/wDlmT8cVcNG0sH/AHmT7sVRUcUcShI0CIOiqAB+GKrsVdir
sVf/2Q==</xapGImg:image>



              </rdf:li>



            </rdf:Alt>



          </xap:Thumbnails>



        </rdf:Description>



        <rdf:Description
   rdf:about="uuid:726872f6-5367-4b00-9d2b-f84f92608d1f"
   id="Description80">
          <xapMM:DocumentID
   id="DocumentID82">
uuid:ef18cd8d-b4e0-42e1-badd-bdf8b8440881</xapMM:DocumentID>



        </rdf:Description>



        <rdf:Description
   rdf:about="uuid:726872f6-5367-4b00-9d2b-f84f92608d1f"
   id="Description86">
          <dc:format
   id="format88">
image/svg+xml</dc:format>



          <dc:title
   id="title91">
            <rdf:Alt
   id="Alt93">
              <rdf:li
   xml:lang="x-default"
   id="li95">
mime.ai</rdf:li>



            </rdf:Alt>



          </dc:title>



        </rdf:Description>



      <cc:Work
   rdf:about=""
   id="Work404">
  <dc:format
   id="format405">image/svg+xml</dc:format>


  <dc:type
   id="type407"
   rdf:resource="http://purl.org/dc/dcmitype/StillImage" />


</cc:Work>


</rdf:RDF>


</metadata>


</x:xmpmeta>



    <xpacket
   id="xpacket103">end='w'    </xpacket>



  </metadata>
  <g
     id="g2493"
     inkscape:export-xdpi="192.00000"
     inkscape:export-ydpi="192.00000"
     inkscape:export-filename="/home/vqu/Desktop/icon tellico/bookcase.png">
    <path
       opacity="0.2"
       d="M44,15.5c-9.374,0-17,7.626-17,17v200c0,9.374,7.626,17,17,17h176c9.375,0,17-7.626,17-17v-200     c0-9.374-7.625-17-17-17H44z"
       id="path551"
       style="opacity:0.20000000;" />
    <path
       opacity="0.2"
       d="M42,13.5c-9.374,0-17,7.626-17,17v200c0,9.374,7.626,17,17,17h176c9.375,0,17-7.626,17-17v-200     c0-9.374-7.625-17-17-17H42z"
       id="path552"
       style="opacity:0.20000000;" />
    <path
       opacity="0.2"
       d="M40,12.5c-9.374,0-17,7.626-17,17v200c0,9.374,7.626,17,17,17h176c9.375,0,17-7.626,17-17v-200     c0-9.374-7.625-17-17-17H40z"
       id="path553"
       style="opacity:0.20000000;" />
    <path
       fill="url(#XMLID_1_)"
       d="M41,11c-9.374,0-17,7.626-17,17v200c0,9.374,7.626,17,17,17h176c9.375,0,17-7.626,17-17V28     c0-9.374-7.625-17-17-17H41z"
       id="path560"
       style="fill:url(#XMLID_1_);" />
    <path
       fill="#FFFFFF"
       d="M28,228c0,6.627,5.373,12,12,12h176c6.627,0,12-5.373,12-12V28c0-6.627-5.373-12-12-12H40     c-6.627,0-12,5.373-12,12V228z"
       id="path561"
       style="fill:#ffffff;" />
    <path
       fill="url(#XMLID_2_)"
       d="M40,21c-3.86,0-7,3.14-7,7v200c0,3.859,3.14,7,7,7h176c3.859,0,7-3.141,7-7V28c0-3.86-3.141-7-7-7     H40z"
       id="path568"
       style="fill:url(#XMLID_2_);" />
    <rect
       id="_x3C_Slice_x3E_"
       fill="none"
       width="256"
       height="256"
       style="fill:none;" />
    <g
       id="g2047"
       transform="matrix(1.730570,0.000000,0.000000,1.844339,-382.2522,-461.2119)">


















<path
   opacity="0.2"
   d="M 299.78022,316.80616 L 261.13022,329.80676 C 260.02222,330.17975 259.32022,330.77819 259.32022,331.43081 L 259.32022,349.22517 C 259.32022,349.88359 259.99322,350.50089 261.11922,350.87147 L 299.80922,363.64953 C 301.22122,364.11589 303.08222,364.11202 304.48722,363.63937 L 340.06286,352.02185 C 341.16986,351.64886 341.83086,351.03784 341.83086,350.38475 C 341.83086,347.78595 342.45373,345.65430 341.51942,345.23555 C 341.57133,344.19568 339.59890,345.02442 339.33937,344.14027 C 339.18365,344.08661 338.87222,337.33708 339.65081,337.43914 C 339.65081,336.44942 341.98658,337.48403 341.83086,336.65003 C 342.55754,336.23128 341.88277,332.54246 341.83086,330.41081 C 341.83086,329.75094 340.37727,328.97841 339.25027,328.60686 L 304.45322,316.79503 C 303.04222,316.33012 301.18222,316.33399 299.78022,316.80616 z "
   id="path2191"
   style="opacity:0.20000000;"
   sodipodi:nodetypes="ccccccccccccccccc" />

<path
   opacity="0.2"
   d="M 297.71922,316.47332 L 259.06822,329.47392 C 257.96022,329.84691 257.25922,330.44535 257.25922,331.09797 L 257.25922,348.89136 C 257.25922,349.55076 257.93222,350.16758 259.05722,350.53863 L 297.28007,363.00428 C 298.69207,363.47162 300.55407,363.46726 301.95807,362.99460 L 339.24561,350.28754 C 340.35361,349.91455 341.01561,349.30304 341.01561,348.64995 C 341.01561,346.79089 341.48277,345.71041 340.70417,345.09709 C 340.91179,344.22424 338.78365,344.28571 338.67984,343.72429 C 338.36841,343.52144 338.05697,335.68842 338.83556,335.64129 C 338.93937,334.86748 340.91180,335.33941 341.01561,334.72132 C 341.48276,333.95228 341.01561,331.62607 341.01561,330.07844 C 341.01561,329.41857 339.09386,328.49032 337.96686,328.11878 L 302.39222,316.46268 C 300.98022,315.99777 299.12122,316.00164 297.71922,316.47332 z "
   id="path2194"
   style="opacity:0.20000000;"
   sodipodi:nodetypes="ccccccccccccccccc" />

<path
   fill="url(#XMLID_4_)"
   d="M 295.41091,315.22758 L 258.16137,327.76103 C 257.05337,328.13402 256.35237,328.73246 256.35237,329.38508 C 254.32804,335.21239 252.92658,339.94969 256.35237,348.26849 C 256.35237,348.92789 257.02537,349.54471 258.15137,349.91576 L 295.43991,362.06998 C 296.85191,362.53732 298.71291,362.53296 300.11691,362.06030 L 336.93830,349.82040 C 338.04530,349.44741 338.70630,348.83590 338.70630,348.18281 C 338.70630,346.80388 339.17345,344.33493 338.70630,344.04602 C 338.75820,343.30465 337.09722,343.65329 337.14912,342.60048 C 336.83768,342.58579 336.52625,334.00663 337.14912,333.36907 C 337.35674,332.82063 338.49868,333.20651 338.70630,332.65807 C 339.38108,332.05773 338.65439,330.21164 338.70630,328.98843 C 338.70630,328.32856 338.03130,327.71174 336.90430,327.34020 L 300.08291,315.21694 C 298.67191,314.75203 296.81291,314.75590 295.41091,315.22758 z "
   id="path2205"
   style="fill:url(#linearGradient2397);"
   sodipodi:nodetypes="ccccccccccccccccc" />

<g
   id="g2207"
   transform="matrix(1.000000,0.000000,0.000000,0.483779,216.3650,286.7469)">
      <polygon
   id="polygon2209"
   fill="#FFFFFF"
   points="81.399000,115.51400 42.708000,89.156000 81.399000,62.256000 120.08900,88.603000 81.399000,115.51400 "
   style="fill:#ffffff;" />



    </g>

<g
   id="g2212"
   transform="matrix(1.000000,0.000000,0.000000,0.483779,216.3650,286.7469)"
   style="fill:url(#linearGradient2404);">
      <linearGradient
   id="linearGradient2214"
   gradientUnits="userSpaceOnUse"
   x1="152.20509"
   y1="1062.5635"
   x2="264.34052"
   y2="1056.6604"
   gradientTransform="matrix(0.384000,0.000000,0.000000,0.384000,-8.427600,-317.4872)"
   spreadMethod="pad"
   xlink:href="#linearGradient2094"
   style="fill:url(#linearGradient2404);">
        

        

        <a:midPointStop
   offset="0"
   style="stop-color:#FF9999;fill:url(#linearGradient2404);"
   id="midPointStop2218" />



        <a:midPointStop
   offset="0.5"
   style="stop-color:#FF9999;fill:url(#linearGradient2404);"
   id="midPointStop2220" />



        <a:midPointStop
   offset="1"
   style="stop-color:#FF6666;fill:url(#linearGradient2404);"
   id="midPointStop2222" />



      </linearGradient>



      <polygon
   id="polygon2225"
   fill="url(#path266_7_)"
   points="81.399000,115.51400 42.708000,89.156000 81.399000,62.256000 120.08900,88.603000 81.399000,115.51400 "
   style="fill:url(#linearGradient2046);" />



    </g>


      <path
   style="fill:#009933;fill-opacity:1.0000000;"
   d="M 297.76400,360.42407 L 336.45400,347.40509 L 336.45400,345.80372 L 332.40534,344.20236 L 331.47103,332.90231 L 336.45400,331.25676 L 336.45400,329.61122 L 297.76400,342.63019 C 295.34160,348.34127 294.68095,353.61190 297.76400,360.42407 z "
   id="path2231"
   sodipodi:nodetypes="ccccccccc" />



    <path
   style="fill:#ffffff;fill-opacity:1.0000000;"
   d="M 297.45257,359.02261 L 334.89682,346.62650 L 335.05254,331.79126 L 297.45257,344.34309 C 295.03017,350.05416 294.36951,352.21044 297.45257,359.02261 z "
   id="path2233"
   sodipodi:nodetypes="ccccc" />

<g
   id="g2235"
   transform="matrix(1.000000,0.000000,0.000000,0.483779,216.3650,286.7469)">
      <path
   style="fill:url(#linearGradient3032);fill-opacity:1.0000000;fill-rule:nonzero;"
   d="M 81.399000,152.29500 L 42.708000,125.88200 C 38.815056,110.40322 40.527951,99.430733 42.708000,89.102000 L 81.404000,115.51400 C 79.200152,125.95352 77.436740,136.84824 81.399000,152.29500 z "
   id="path2237"
   sodipodi:nodetypes="ccccc" />



    </g>

<path
   style="fill:none;fill-opacity:0.75000000;fill-rule:evenodd;stroke:#003333;stroke-width:1.0000000pt;stroke-linecap:round;stroke-linejoin:round;stroke-opacity:1.0000000;"
   d="M 259.24295,330.42313 L 297.62542,343.35150 C 294.24874,350.39848 295.08292,353.62160 297.87235,359.78771"
   id="path2249"
   sodipodi:nodetypes="ccc" />


</g>
    <g
       id="g2159"
       transform="matrix(1.730570,0.000000,0.000000,1.844339,-245.8950,-436.2256)">
  

  

  

  
    

    

    

    

    

    

    

    

    

    <path
   opacity="0.2"
   d="M 310.68046,263.55069 L 272.03046,276.55129 C 270.92246,276.92428 270.22046,277.52272 270.22046,278.17534 L 270.22046,295.96970 C 270.22046,296.62812 270.89346,297.24542 272.01946,297.61600 L 310.70946,310.39406 C 312.12146,310.86042 313.98246,310.85655 315.38746,310.38390 L 350.96310,298.76638 C 352.07010,298.39339 352.73110,297.78237 352.73110,297.12928 C 352.73110,294.53048 353.35397,292.39883 352.41966,291.98008 C 352.47157,290.94021 350.49914,291.76895 350.23961,290.88480 C 350.08389,290.83114 349.77246,284.08161 350.55105,284.18367 C 350.55105,283.19395 352.88682,284.22856 352.73110,283.39456 C 353.45778,282.97581 352.78301,279.28699 352.73110,277.15534 C 352.73110,276.49547 351.27751,275.72294 350.15051,275.35139 L 315.35346,263.53956 C 313.94246,263.07465 312.08246,263.07852 310.68046,263.55069 z "
   id="path2265"
   style="opacity:0.20000000;"
   sodipodi:nodetypes="ccccccccccccccccc"
   transform="translate(-99.03649,19.15329)" />



    

    <path
   opacity="0.2"
   d="M 308.61946,263.21785 L 269.96846,276.21845 C 268.86046,276.59144 268.15946,277.18988 268.15946,277.84250 L 268.15946,295.63589 C 268.15946,296.29529 268.83246,296.91211 269.95746,297.28316 L 308.18031,309.74881 C 309.59231,310.21615 311.45431,310.21179 312.85831,309.73913 L 350.14585,297.03207 C 351.25385,296.65908 351.91585,296.04757 351.91585,295.39448 C 351.91585,293.53542 352.38301,292.45494 351.60441,291.84162 C 351.81203,290.96877 349.68389,291.03024 349.58008,290.46882 C 349.26865,290.26597 348.95721,282.43295 349.73580,282.38582 C 349.83961,281.61201 351.81204,282.08394 351.91585,281.46585 C 352.38300,280.69681 351.91585,278.37060 351.91585,276.82297 C 351.91585,276.16310 349.99410,275.23485 348.86710,274.86331 L 313.29246,263.20721 C 311.88046,262.74230 310.02146,262.74617 308.61946,263.21785 z "
   id="path2268"
   style="opacity:0.20000000;"
   sodipodi:nodetypes="ccccccccccccccccc"
   transform="translate(-99.03649,19.15329)" />



    

    

    

    

    

    

    

    

    

    <path
   fill="url(#XMLID_4_)"
   d="M 306.31115,261.97211 L 269.06161,274.50556 C 267.95361,274.87855 267.25261,275.47699 267.25261,276.12961 C 265.22828,281.95692 263.82682,286.69422 267.25261,295.01302 C 267.25261,295.67242 267.92561,296.28924 269.05161,296.66029 L 306.34015,308.81451 C 307.75215,309.28185 309.61315,309.27749 311.01715,308.80483 L 347.83854,296.56493 C 348.94554,296.19194 349.60654,295.58043 349.60654,294.92734 C 349.60654,293.54841 350.07369,291.07946 349.60654,290.79055 C 349.65844,290.04918 347.99746,290.39782 348.04936,289.34501 C 347.73792,289.33032 347.42649,280.75116 348.04936,280.11360 C 348.25698,279.56516 349.39892,279.95104 349.60654,279.40260 C 350.28132,278.80226 349.55463,276.95617 349.60654,275.73296 C 349.60654,275.07309 348.93154,274.45627 347.80454,274.08473 L 310.98315,261.96147 C 309.57215,261.49656 307.71315,261.50043 306.31115,261.97211 z "
   id="path2279"
   style="fill:url(#linearGradient2151);"
   sodipodi:nodetypes="ccccccccccccccccc"
   transform="translate(-99.03649,19.15329)" />



    <g
   id="g2281"
   transform="matrix(1.000000,0.000000,0.000000,0.483779,128.2287,252.6448)">
      <polygon
   id="polygon2283"
   fill="#FFFFFF"
   points="81.399000,115.51400 42.708000,89.156000 81.399000,62.256000 120.08900,88.603000 81.399000,115.51400 "
   style="fill:#ffffff;" />



    </g>



    <g
   id="g2286"
   transform="matrix(1.000000,0.000000,0.000000,0.483779,128.2287,252.6448)">
      <linearGradient
   id="linearGradient2288"
   gradientUnits="userSpaceOnUse"
   x1="152.20509"
   y1="1062.5635"
   x2="264.34052"
   y2="1056.6604"
   gradientTransform="matrix(0.384000,0.000000,0.000000,0.384000,-8.427600,-317.4872)"
   spreadMethod="pad"
   xlink:href="#linearGradient2094">
        

        

        <a:midPointStop
   offset="0"
   style="stop-color:#FF9999"
   id="midPointStop2292" />



        <a:midPointStop
   offset="0.5"
   style="stop-color:#FF9999"
   id="midPointStop2294" />



        <a:midPointStop
   offset="1"
   style="stop-color:#FF6666"
   id="midPointStop2296" />



      </linearGradient>



      <polygon
   id="polygon2299"
   fill="url(#path266_7_)"
   points="81.399000,115.51400 42.708000,89.156000 81.399000,62.256000 120.08900,88.603000 81.399000,115.51400 "
   style="fill:url(#linearGradient2150);" />



    </g>



    

    <g
   id="g2303"
   transform="matrix(1.000000,0.000000,0.000000,0.483779,128.2287,252.6448)">
      <path
   style="fill:#0056d5;fill-opacity:1.0000000;"
   d="M 81.399000,152.29500 L 120.08900,125.38400 L 120.08900,122.07388 L 116.04034,118.76377 L 115.10603,95.405896 L 120.08900,92.004448 L 120.08900,88.603000 L 81.399000,115.51400 C 78.976600,127.31913 78.315946,138.21385 81.399000,152.29500 z "
   id="path2305"
   sodipodi:nodetypes="ccccccccc" />



    <path
   style="fill:#ffffff;fill-opacity:1.0000000;"
   d="M 81.087564,149.39810 L 118.53182,123.77461 L 118.68754,93.109290 L 81.087564,119.05466 C 78.665164,130.85979 78.004510,135.31695 81.087564,149.39810 z "
   id="path2307"
   sodipodi:nodetypes="ccccc" />

</g>



    <g
   id="g2309"
   transform="matrix(1.000000,0.000000,0.000000,0.483779,128.2287,252.6448)">
      <path
   style="fill:url(#linearGradient2158);fill-opacity:1.0000000;"
   d="M 81.399000,152.29500 L 42.708000,125.88200 C 38.815056,110.40322 40.527951,99.430733 42.708000,89.102000 L 81.404000,115.51400 C 79.200152,125.95352 77.436740,136.84824 81.399000,152.29500 z "
   id="path2311"
   sodipodi:nodetypes="ccccc" />



    </g>



    

    

    

    

    

    

    

    

  

<path
   style="fill:none;fill-opacity:0.75000000;fill-rule:evenodd;stroke:#003344;stroke-width:1.0000000pt;stroke-linecap:round;stroke-linejoin:round;stroke-opacity:1.0000000;"
   d="M 270.14319,277.16766 L 308.52566,290.09603 C 305.14898,297.14301 305.98316,300.36613 308.77259,306.53224"
   id="path2323"
   sodipodi:nodetypes="ccc"
   transform="translate(-99.03649,19.15329)" />

</g>
    <g
       id="g2102"
       transform="matrix(1.730570,0.000000,0.000000,1.844339,-394.1092,-435.9384)">
  

  

  

  
    

    

    

    

    

    

    

    

    

    <path
   opacity="0.2"
   d="M 310.68046,263.55069 L 272.03046,276.55129 C 270.92246,276.92428 270.22046,277.52272 270.22046,278.17534 L 270.22046,295.96970 C 270.22046,296.62812 270.89346,297.24542 272.01946,297.61600 L 310.70946,310.39406 C 312.12146,310.86042 313.98246,310.85655 315.38746,310.38390 L 350.96310,298.76638 C 352.07010,298.39339 352.73110,297.78237 352.73110,297.12928 C 352.73110,294.53048 353.35397,292.39883 352.41966,291.98008 C 352.47157,290.94021 350.49914,291.76895 350.23961,290.88480 C 350.08389,290.83114 349.77246,284.08161 350.55105,284.18367 C 350.55105,283.19395 352.88682,284.22856 352.73110,283.39456 C 353.45778,282.97581 352.78301,279.28699 352.73110,277.15534 C 352.73110,276.49547 351.27751,275.72294 350.15051,275.35139 L 315.35346,263.53956 C 313.94246,263.07465 312.08246,263.07852 310.68046,263.55069 z "
   id="path570"
   style="opacity:0.20000000;"
   sodipodi:nodetypes="ccccccccccccccccc" />



    

    <path
   opacity="0.2"
   d="M 308.61946,263.21785 L 269.96846,276.21845 C 268.86046,276.59144 268.15946,277.18988 268.15946,277.84250 L 268.15946,295.63589 C 268.15946,296.29529 268.83246,296.91211 269.95746,297.28316 L 308.18031,309.74881 C 309.59231,310.21615 311.45431,310.21179 312.85831,309.73913 L 350.14585,297.03207 C 351.25385,296.65908 351.91585,296.04757 351.91585,295.39448 C 351.91585,293.53542 352.38301,292.45494 351.60441,291.84162 C 351.81203,290.96877 349.68389,291.03024 349.58008,290.46882 C 349.26865,290.26597 348.95721,282.43295 349.73580,282.38582 C 349.83961,281.61201 351.81204,282.08394 351.91585,281.46585 C 352.38300,280.69681 351.91585,278.37060 351.91585,276.82297 C 351.91585,276.16310 349.99410,275.23485 348.86710,274.86331 L 313.29246,263.20721 C 311.88046,262.74230 310.02146,262.74617 308.61946,263.21785 z "
   id="path572"
   style="opacity:0.20000000;"
   sodipodi:nodetypes="ccccccccccccccccc" />



    

    

    

    

    

    

    

    

    

    <path
   fill="url(#XMLID_4_)"
   d="M 306.31115,261.97211 L 269.06161,274.50556 C 267.95361,274.87855 267.25261,275.47699 267.25261,276.12961 C 265.22828,281.95692 263.82682,286.69422 267.25261,295.01302 C 267.25261,295.67242 267.92561,296.28924 269.05161,296.66029 L 306.34015,308.81451 C 307.75215,309.28185 309.61315,309.27749 311.01715,308.80483 L 347.83854,296.56493 C 348.94554,296.19194 349.60654,295.58043 349.60654,294.92734 C 349.60654,293.54841 350.07369,291.07946 349.60654,290.79055 C 349.65844,290.04918 347.99746,290.39782 348.04936,289.34501 C 347.73792,289.33032 347.42649,280.75116 348.04936,280.11360 C 348.25698,279.56516 349.39892,279.95104 349.60654,279.40260 C 350.28132,278.80226 349.55463,276.95617 349.60654,275.73296 C 349.60654,275.07309 348.93154,274.45627 347.80454,274.08473 L 310.98315,261.96147 C 309.57215,261.49656 307.71315,261.50043 306.31115,261.97211 z "
   id="path608"
   style="fill:url(#XMLID_4_);"
   sodipodi:nodetypes="ccccccccccccccccc" />



    <g
   id="g253_3_"
   transform="matrix(1.000000,0.000000,0.000000,0.483779,227.2652,233.4915)">
      <polygon
   id="path266_3_"
   fill="#FFFFFF"
   points="81.399000,115.51400 42.708000,89.156000 81.399000,62.256000 120.08900,88.603000 81.399000,115.51400 "
   style="fill:#ffffff;" />



    </g>



    <g
   id="g253_1_"
   transform="matrix(1.000000,0.000000,0.000000,0.483779,227.2652,233.4915)">
      <linearGradient
   id="path266_7_"
   gradientUnits="userSpaceOnUse"
   x1="152.20509"
   y1="1062.5635"
   x2="264.34052"
   y2="1056.6604"
   gradientTransform="matrix(0.384000,0.000000,0.000000,0.384000,-8.427600,-317.4872)"
   spreadMethod="pad"
   xlink:href="#linearGradient2094">
        

        

        <a:midPointStop
   offset="0"
   style="stop-color:#FF9999"
   id="midPointStop615" />



        <a:midPointStop
   offset="0.5"
   style="stop-color:#FF9999"
   id="midPointStop616" />



        <a:midPointStop
   offset="1"
   style="stop-color:#FF6666"
   id="midPointStop617" />



      </linearGradient>



      <polygon
   id="path266_1_"
   fill="url(#path266_7_)"
   points="81.399000,115.51400 42.708000,89.156000 81.399000,62.256000 120.08900,88.603000 81.399000,115.51400 "
   style="fill:url(#path266_7_);" />



    </g>



    

    <g
   id="g267_1_"
   transform="matrix(1.000000,0.000000,0.000000,0.483779,227.2652,233.4915)">
      <path
   style="fill:#cf0000;"
   d="M 81.399000,152.29500 L 120.08900,125.38400 L 120.08900,122.07388 L 116.04034,118.76377 L 115.10603,95.405896 L 120.08900,92.004448 L 120.08900,88.603000 L 81.399000,115.51400 C 78.976600,127.31913 78.315946,138.21385 81.399000,152.29500 z "
   id="path277_2_"
   sodipodi:nodetypes="ccccccccc" />



    <path
   style="fill:#ffffff;fill-opacity:1.0000000;"
   d="M 81.087564,149.39810 L 118.53182,123.77461 L 118.68754,93.109290 L 81.087564,119.05466 C 78.665164,130.85979 78.004510,135.31695 81.087564,149.39810 z "
   id="path1472"
   sodipodi:nodetypes="ccccc" />

</g>



    <g
   id="g278_1_"
   transform="matrix(1.000000,0.000000,0.000000,0.483779,227.2652,233.4915)">
      <path
   style="fill:url(#linearGradient2098);fill-opacity:1.0000000;"
   d="M 81.399000,152.29500 L 42.708000,125.88200 C 38.815056,110.40322 40.527951,99.430733 42.708000,89.102000 L 81.404000,115.51400 C 79.200152,125.95352 77.436740,136.84824 81.399000,152.29500 z "
   id="path279_1_"
   sodipodi:nodetypes="ccccc" />



    </g>



    

    

    

    

    

    

    

    

  

<path
   style="fill:none;fill-opacity:0.75000000;fill-rule:evenodd;stroke:#600000;stroke-width:1.0000000pt;stroke-linecap:round;stroke-linejoin:round;stroke-opacity:1.0000000;"
   d="M 270.14319,277.16766 L 308.52566,290.09603 C 305.14898,297.14301 305.98316,300.36613 308.77259,306.53224"
   id="path1469"
   sodipodi:nodetypes="ccc" />

</g>
  </g>
</svg>
