/* XPM */
static char *tellico[] = {
/* columns rows colors chars-per-pixel */
"32 32 24 1",
"  c #000404",
". c #062625",
"X c #01354A",
"o c #165536",
"O c #1C6056",
"+ c #5E0507",
"@ c #52545F",
"# c #1E5F9D",
"$ c #2B7ACF",
"% c #57B35E",
"& c #288FF2",
"* c #3486D1",
"= c #67ADB3",
"- c #A12223",
"; c #FD7070",
": c #E35555",
"> c #B84A4A",
", c #90F592",
"< c #FA8B8C",
"1 c #DC9F9F",
"2 c #FEFEFE",
"3 c #D6D8D4",
"4 c #ABB5B7",
"5 c None",
/* pixels */
"55555555555555555555555555555555",
"55555555555555555++5555555555555",
"55555555555555+++:>+++5555555555",
"55555555555+++><<;;<<>+++5555555",
"55555555+++><<<<<;;;;;;;>+++5555",
"55555+++>1<<<<;;;<;;;;:;:;;>+++5",
"5555 +>1<<<<<<<;;;;;;;:;;;;:;>+ ",
"5555+-:>><<<<;<;<;;;:;;::;;>>>+ ",
"5555+>;;:--:;<;<;;;;;;;::><22>  ",
"5555+:<;;;;:>-><<;;:::><222221  ",
"5555+><<<<;;;::->>::;32222222>+5",
"55XXX-;;<<<<<;;;:-322222222221+ ",
"XX*==-::;;;<<<<<;>22222222231-+ ",
"XO##*&@+->::;<;<<>2222222;>++   ",
"X#&&$##*#@--::;;<>2223<--++    5",
"X&&&&&$$##*#@+-:;-21>-+@4@  5555",
"X$&&&&&&&$###$#.+--+@1432@ 55555",
"X#&&&&&&&&&&$#32214432222=. 5555",
"XX$&&&&&&&&&&#22222222224#X.. 55",
"5XXX#&$&&&&&&422222224=OXo@%O. 5",
"555.XXO$$$&&&=22223*#Xooo%%=O. 5",
"555X,,%OX##$&#23=#ooo@o%%322%  5",
"555.,,,,%%OXO##OXo%%%%322222@ 55",
"555.%,,,,,,,%Ooo%O%322222222@ 55",
"555.%,,,,,,,,,,%O22222222222%. 5",
"555.o%%,,,,,,,,%%2222222224%X. 5",
"5555..oO%,,,,,,,3222222,%oX..  5",
"555555 ..oO%,,,,=2223%O...    55",
"555555555 ..oO%,%3%Oo..    55555",
"555555555555 ..ooXo.    55555555",
"555555555555555..    55555555555",
"55555555555555555555555555555555"
};
